<svg width="32" height="32" viewBox="0 0 32 32" fill="none" xmlns="http://www.w3.org/2000/svg">
<path d="M6.83249 2C6.16055 2 5.55112 2.41135 5.29589 3.03892L1.82163 11.4768L1.12886 13.1644C0.774658 14.024 1.17574 15.0102 2.02477 15.3688C2.8738 15.7274 3.84785 15.3214 4.20205 14.4617L4.4729 13.8131H9.19728L9.46293 14.4617C9.81713 15.3214 10.7912 15.7274 11.6402 15.3688C12.4892 15.0102 12.8903 14.024 12.5361 13.1644L11.8433 11.4768L8.36908 3.03892C8.11385 2.41135 7.50442 2 6.83249 2ZM7.80653 10.4379H5.85844L6.83249 8.0753L7.80653 10.4379ZM14.3332 3.68758V8.75033V13.8131C14.3332 14.7465 15.078 15.5007 16 15.5007H20.167C22.4693 15.5007 24.334 13.6127 24.334 11.2817C24.334 10.0635 23.8236 8.97182 23.011 8.20187C23.3235 7.61121 23.5006 6.93618 23.5006 6.21896C23.5006 3.88798 21.6359 2 19.3336 2H16C15.078 2 14.3332 2.75414 14.3332 3.68758ZM19.3336 7.06275H17.6668V5.37516H19.3336C19.792 5.37516 20.167 5.75487 20.167 6.21896C20.167 6.68304 19.792 7.06275 19.3336 7.06275ZM17.6668 10.4379H19.3336H20.167C20.6254 10.4379 21.0004 10.8176 21.0004 11.2817C21.0004 11.7458 20.6254 12.1255 20.167 12.1255H17.6668V10.4379ZM30.5117 18.3801C31.1628 17.7209 31.1628 16.6503 30.5117 15.9911C29.8606 15.3319 28.8032 15.3319 28.1521 15.9911L19.3336 24.9248L15.5103 21.0539C14.8592 20.3946 13.8019 20.3946 13.1508 21.0539C12.4997 21.7131 12.4997 22.7836 13.1508 23.4428L18.1512 28.5056C18.8023 29.1648 19.8597 29.1648 20.5108 28.5056L30.5117 18.3801Z" fill="#FB7185"/>
</svg>
